<svg xmlns="http://www.w3.org/2000/svg" viewBox="0 0 266.68 79.91"><defs><style>.cls-1{fill:#fff;}</style></defs><title>logo-new</title><g id="Layer_2" data-name="Layer 2"><g id="Layer_1-2" data-name="Layer 1"><path class="cls-1" d="M95.32,26.62a1,1,0,0,1,1.2.93c1.75,7,3.77,13.87,6.23,21h.38c2.46-7.16,4.48-14.15,6.17-21a1,1,0,0,1,1.21-.93h3c.6,0,.82.16.82.6a8.67,8.67,0,0,1-.33,1.64,197.93,197.93,0,0,1-7.26,22.78c-.55,1.36-1.1,1.75-2.35,1.75h-3c-1.26,0-1.8-.39-2.35-1.75a199.93,199.93,0,0,1-7.27-22.78,8.64,8.64,0,0,1-.32-1.64c0-.44.21-.6.82-.6Z"/><path class="cls-1" d="M136.29,41c0,1-.44,1.58-1.53,1.58H120.67c.16,5.19,1.31,7.16,6.66,7.16a17.64,17.64,0,0,0,5.79-1,3.4,3.4,0,0,1,.88-.22c.27,0,.49.11.65.6l.38,1.31a5.1,5.1,0,0,1,.28,1.15c0,.38-.22.6-.66.82a20.7,20.7,0,0,1-7.92,1.53c-8.52,0-11.2-3.77-11.2-13V39.07c0-8.57,2.73-12.94,10.71-12.94,6.5,0,10,3.17,10,10.92Zm-5.57-2.52c.54,0,.71-.16.71-.76,0-5.19-1.09-7.43-5.3-7.43-4.53,0-5.52,2.62-5.52,8.19Z"/><path class="cls-1" d="M140.22,27.44c0-.66.28-.82.88-.82H143c.65,0,.93.16,1,.82l.27,1.75h.11c1.53-1.86,4-3.06,7.76-3.06,6.22,0,9.45,2.89,9.45,10.76V52.4c0,.77-.28,1-1.1,1H157.7c-.76,0-1.09-.22-1.09-1V36.67c0-4.59-1.58-6.45-5.73-6.45-3.61,0-5.63,1.37-5.63,5.69V52.4c0,.77-.27,1-1.09,1h-2.84c-.77,0-1.1-.22-1.1-1Z"/><path class="cls-1" d="M175.84,53.39c-3.44,0-5.41-.71-6.55-2s-1.64-3.28-1.64-6.67V30.94h-3.28c-.6,0-.82-.17-.82-.82V28.37c0-.71.16-.82.71-.93l3.39-.66v-6c0-.77.32-1,1.09-1h2.89c.77,0,1,.27,1,1v5.79h5.9c.66,0,.88.27.88,1V30c0,.66-.22,1-.88,1h-5.9V44.37c0,2.13.11,2.9.66,3.72s1.42,1,3.44,1h2.35c.71,0,1,.17,1,1V52.4c0,.71-.16,1-1,1Z"/><path class="cls-1" d="M198.51,27.6c0-.76.33-1,1.09-1h2.84c.82,0,1.1.22,1.1,1v17.7c0,3.16-.93,5.29-2.79,6.66-1.69,1.31-3.88,1.86-7.59,1.86s-5.9-.55-7.65-1.86-2.79-3.5-2.79-6.66V27.6c0-.76.33-1,1.1-1h2.84c.82,0,1.09.22,1.09,1V44.54c0,2,.33,3.27,1.26,4a6.39,6.39,0,0,0,4.15,1.09,6.13,6.13,0,0,0,4.2-1.2c.88-.77,1.15-1.91,1.15-3.93Z"/><path class="cls-1" d="M212.44,30.12h.11c1.42-2.41,3.22-3.5,6.77-3.5h1.1c.87,0,1.14.22,1.14,1V30c0,.65-.27.93-1.14.93h-1.21c-2.62,0-3.76.49-4.64,1.52s-1.2,2.46-1.2,4.76V52.4c0,.77-.27,1-1.09,1h-2.84c-.77,0-1.1-.22-1.1-1v-25c0-.66.28-.82.88-.82h1.91c.66,0,1,.16,1,.82Z"/><path class="cls-1" d="M239.64,27.6c0-.76.33-1,1.1-1h2.84c.82,0,1.09.22,1.09,1v17.7c0,3.16-.93,5.29-2.79,6.66-1.69,1.31-3.87,1.86-7.59,1.86s-5.9-.55-7.65-1.86-2.78-3.5-2.78-6.66V27.6c0-.76.33-1,1.09-1h2.84c.82,0,1.09.22,1.09,1V44.54c0,2,.33,3.27,1.26,4a6.41,6.41,0,0,0,4.15,1.09,6.16,6.16,0,0,0,4.21-1.2c.87-.77,1.14-1.91,1.14-3.93Z"/><path class="cls-1" d="M248.93,52.51c-.49-.16-.76-.33-.76-.76a8.49,8.49,0,0,1,.32-1.64l.28-1c.16-.6.38-.76.71-.76a12,12,0,0,1,2,.6,19.44,19.44,0,0,0,5.58.77c3.49,0,5-1.21,5-3.77v-.28c0-2.51-1.21-3.27-3.88-3.82l-2.57-.55c-5.57-1.2-6.94-2.84-6.94-7.37v-.38c0-5.08,3-7.43,9.18-7.43a24.37,24.37,0,0,1,6.94.93c.54.16.65.38.65.71a13.73,13.73,0,0,1-.32,1.58l-.28,1c-.16.6-.27.76-.65.76a5.36,5.36,0,0,1-1.1-.21,21.37,21.37,0,0,0-4.91-.61c-3.72,0-4.81.93-4.81,3.23v.27c0,1.91.93,2.68,4.1,3.39l2.51.54c4.86,1,6.77,3,6.77,7.7v.44c0,5.19-3.33,8-9.77,8A25.45,25.45,0,0,1,248.93,52.51Z"/><path class="cls-1" d="M40,79.91A40,40,0,1,1,79.91,40,40,40,0,0,1,40,79.91ZM40,2.55A37.41,37.41,0,1,0,77.36,40,37.45,37.45,0,0,0,40,2.55Z"/><path class="cls-1" d="M40.41,66A14.58,14.58,0,0,1,37,65.56a9,9,0,0,1-6.06-5L15.78,27.09a4.67,4.67,0,0,1,0-3.77,4.78,4.78,0,0,1,2.82-2.61,17.3,17.3,0,0,1,9.57-.28,8.47,8.47,0,0,1,5.38,4.76C36,31,40.11,41.6,43.13,49.33l2.12,5.41a1.93,1.93,0,0,0,3.56.08L61.74,26.27a2.28,2.28,0,0,0,.06-2,2.73,2.73,0,0,0-1.95-1.34,19.13,19.13,0,0,0-6.09-.32,6,6,0,0,0-5,3.63l-5,12.67L41.37,38l5-12.67a8.44,8.44,0,0,1,7.08-5.22,21.49,21.49,0,0,1,6.89.36,5.29,5.29,0,0,1,3.69,2.68,4.77,4.77,0,0,1,0,4.2L51.13,55.87a4.48,4.48,0,0,1-8.25-.19c-.6-1.54-1.32-3.39-2.12-5.42-3-7.72-7.14-18.3-9.6-24.08a6,6,0,0,0-3.69-3.29,14.77,14.77,0,0,0-8.08.23,2.19,2.19,0,0,0-1.31,1.2,2.1,2.1,0,0,0,0,1.72L33.24,59.47a6.45,6.45,0,0,0,4.33,3.61,12,12,0,0,0,5.31.08,4.68,4.68,0,0,0,2.86-1.73,1.27,1.27,0,1,1,2.14,1.38,7.09,7.09,0,0,1-4.46,2.84A14.29,14.29,0,0,1,40.41,66Z"/></g></g></svg>